<svg width="1000" height="1024" viewBox="0 0 1000 1024" fill="none" xmlns="http://www.w3.org/2000/svg">
<g filter="url(#filter0_d_377_583)">
<path d="M45.0298 312.871V659.437C45.0298 716.624 80.5499 729.002 80.5499 729.002L456.68 983.823C515.891 1023.93 500 939.491 500 939.491V620.93L45.0298 312.871Z" fill="#37474F"/>
<path d="M954.97 312.871V659.437C954.97 716.624 920.425 729.002 920.425 729.002C920.425 729.002 603.018 943.719 543.84 983.823C484.596 1023.93 500 939.491 500 939.491V620.93L954.97 312.871Z" fill="#455A64"/>
<path d="M541.89 18.8124C517.419 1.72919 477.284 1.72919 452.781 18.8124L63.3912 285.675C38.8878 302.759 38.8878 330.68 63.3912 347.735L454.113 617.875C478.616 634.93 518.751 634.93 543.255 617.875L936.609 345.383C961.112 328.327 961.112 300.406 936.609 283.323L541.89 18.8124Z" fill="#546E7A"/>
<path d="M500 1006C482.061 1006 467.502 992.501 467.502 975.809V613.785C467.502 597.093 482.061 583.595 500 583.595C517.971 583.595 532.498 597.093 532.498 613.785V975.809C532.498 992.501 517.971 1006 500 1006Z" fill="#546E7A"/>
<path d="M824.979 532.321C824.979 563.239 828.359 578.418 792.481 600.71L712.244 653.304C676.366 675.624 662.489 656.469 662.489 625.523V542.599C662.489 537.194 661.645 531.397 653.455 525.572C569.676 466.06 244.372 243.39 185.096 202.278L335.399 99.2744C376.541 125.207 684.848 330.374 813.832 417.891C820.234 422.26 824.979 427.077 824.979 432.342V532.321Z" fill="#99AAB5"/>
<path d="M813.8 417.891C684.848 330.374 376.541 125.207 335.399 99.2744L279.47 137.586L185.096 202.278C244.405 243.39 569.676 466.06 653.455 525.572C657.403 528.17 660.238 531.825 661.515 535.962L821.827 424.892C819.569 422.228 816.864 419.869 813.8 417.891Z" fill="#CCD6DD"/>
<path d="M824.979 532.321V432.342C824.979 427.077 820.234 422.288 813.8 417.891C684.848 330.374 376.541 125.207 335.399 99.2744L268.031 145.455C378.296 220.201 673.636 416.575 750.949 469.561C759.268 475.274 759.983 481.183 759.983 486.588V622.022L792.481 600.71C828.359 578.39 824.979 563.239 824.979 532.321Z" fill="#CCD6DD"/>
<path d="M813.8 417.891C684.848 330.374 376.541 125.207 335.399 99.2744L268.031 145.455C378.296 220.201 673.636 416.575 750.949 469.561C752.151 470.373 752.899 471.213 753.776 472.026L821.827 424.893C819.569 422.228 816.864 419.869 813.8 417.891Z" fill="#E1E8ED"/>
</g>
<defs>
<filter id="filter0_d_377_583" x="39.0137" y="0" width="933.973" height="1024" filterUnits="userSpaceOnUse" color-interpolation-filters="sRGB">
<feFlood flood-opacity="0" result="BackgroundImageFix"/>
<feColorMatrix in="SourceAlpha" type="matrix" values="0 0 0 0 0 0 0 0 0 0 0 0 0 0 0 0 0 0 127 0" result="hardAlpha"/>
<feOffset dx="6" dy="6"/>
<feGaussianBlur stdDeviation="6"/>
<feComposite in2="hardAlpha" operator="out"/>
<feColorMatrix type="matrix" values="0 0 0 0 0 0 0 0 0 0 0 0 0 0 0 0 0 0 0.6 0"/>
<feBlend mode="normal" in2="BackgroundImageFix" result="effect1_dropShadow_377_583"/>
<feBlend mode="normal" in="SourceGraphic" in2="effect1_dropShadow_377_583" result="shape"/>
</filter>
</defs>
</svg>
