<svg width="1000" height="1000" viewBox="0 0 1000 1000" fill="none" xmlns="http://www.w3.org/2000/svg">
<path d="M45.0161 306.871V653.437C45.0161 701.5 80.5373 723.002 80.5373 723.002L455 976.685L456.679 977.823C457.277 978.228 481.417 994.62 482 995C496 982.5 500 933.49 500 933.49V614.93L45.0161 306.871Z" fill="#37474F"/>
<path d="M954.984 306.871V653.437C954.984 698 920.438 723.002 920.438 723.002C920.438 723.002 609.663 933.226 545.793 976.5C545.114 976.96 544.463 977.401 543.841 977.823C543.219 978.244 518.5 995 517 995.5C503 981.5 500 933.49 500 933.49V614.93L954.984 306.871Z" fill="#455A64"/>
<path d="M541.891 12.8124C517.419 -4.27081 477.283 -4.27081 452.779 12.8124L63.3781 279.675C38.874 296.759 38.874 324.68 63.3781 341.735L454.112 611.875C478.616 628.93 518.752 628.93 543.256 611.875L936.622 339.383C961.126 322.327 961.126 294.406 936.622 277.323L541.891 12.8124Z" fill="#546E7A"/>
<path d="M500 999.999C482.061 999.999 467.501 986.501 467.501 969.81V607.785C467.501 591.093 482.061 577.595 500 577.595C517.972 577.595 532.499 591.093 532.499 607.785V969.81C532.499 986.501 517.972 999.999 500 999.999Z" fill="#546E7A"/>
<path d="M824.989 526.321C824.989 557.239 828.368 572.418 792.49 594.71L712.25 647.304C676.371 669.624 662.494 650.469 662.494 619.523V536.599C662.494 531.194 661.649 525.397 653.46 519.572C569.678 460.06 244.364 237.39 185.086 196.278L335.394 93.2744C376.537 119.207 684.854 324.374 813.841 411.891C820.244 416.26 824.989 421.077 824.989 426.342V526.321Z" fill="#99AAB5"/>
<path d="M813.809 411.891C684.854 324.374 376.537 119.207 335.394 93.2744L279.463 131.586L185.086 196.278C244.397 237.39 569.678 460.06 653.46 519.572C657.408 522.17 660.243 525.825 661.519 529.962L821.836 418.892C819.578 416.228 816.873 413.869 813.809 411.891Z" fill="#CCD6DD"/>
<path d="M824.989 526.321V426.342C824.989 421.077 820.244 416.288 813.809 411.891C684.854 324.374 376.537 119.207 335.394 93.2744L268.023 139.455C378.292 214.201 673.642 410.575 750.956 463.561C759.276 469.274 759.991 475.183 759.991 480.588V616.022L792.49 594.71C828.369 572.39 824.989 557.239 824.989 526.321Z" fill="#CCD6DD"/>
<path d="M813.809 411.891C684.854 324.374 376.537 119.207 335.394 93.2744L268.023 139.455C378.292 214.201 673.641 410.575 750.956 463.561C752.159 464.373 752.906 465.213 753.784 466.026L821.836 418.893C819.578 416.228 816.873 413.869 813.809 411.891Z" fill="#E1E8ED"/>
</svg>
